<svg width="700" height="700" viewBox="0 0 700 700" fill="none" xmlns="http://www.w3.org/2000/svg">
<path fill-rule="evenodd" clip-rule="evenodd" d="M21 0C9.40202 0 0 9.402 0 21V679C0 690.598 9.402 700 21 700H679C690.598 700 700 690.598 700 679V21C700 9.40202 690.598 0 679 0H21ZM59 97C79.9868 97 97 79.9868 97 59C97 38.0132 79.9868 21 59 21C38.0132 21 21 38.0132 21 59C21 79.9868 38.0132 97 59 97ZM194 59C194 79.9868 176.987 97 156 97C135.013 97 118 79.9868 118 59C118 38.0132 135.013 21 156 21C176.987 21 194 38.0132 194 59ZM253 97C273.987 97 291 79.9868 291 59C291 38.0132 273.987 21 253 21C232.013 21 215 38.0132 215 59C215 79.9868 232.013 97 253 97ZM388 59C388 79.9868 370.987 97 350 97C329.013 97 312 79.9868 312 59C312 38.0132 329.013 21 350 21C370.987 21 388 38.0132 388 59ZM447 97C467.987 97 485 79.9868 485 59C485 38.0132 467.987 21 447 21C426.013 21 409 38.0132 409 59C409 79.9868 426.013 97 447 97ZM582 59C582 79.9868 564.987 97 544 97C523.013 97 506 79.9868 506 59C506 38.0132 523.013 21 544 21C564.987 21 582 38.0132 582 59ZM641 97C661.987 97 679 79.9868 679 59C679 38.0132 661.987 21 641 21C620.013 21 603 38.0132 603 59C603 79.9868 620.013 97 641 97ZM97 156C97 176.987 79.9868 194 59 194C38.0132 194 21 176.987 21 156C21 135.013 38.0132 118 59 118C79.9868 118 97 135.013 97 156ZM156 194C176.987 194 194 176.987 194 156C194 135.013 176.987 118 156 118C135.013 118 118 135.013 118 156C118 176.987 135.013 194 156 194ZM291 156C291 176.987 273.987 194 253 194C232.013 194 215 176.987 215 156C215 135.013 232.013 118 253 118C273.987 118 291 135.013 291 156ZM350 194C370.987 194 388 176.987 388 156C388 135.013 370.987 118 350 118C329.013 118 312 135.013 312 156C312 176.987 329.013 194 350 194ZM485 156C485 176.987 467.987 194 447 194C426.013 194 409 176.987 409 156C409 135.013 426.013 118 447 118C467.987 118 485 135.013 485 156ZM544 194C564.987 194 582 176.987 582 156C582 135.013 564.987 118 544 118C523.013 118 506 135.013 506 156C506 176.987 523.013 194 544 194ZM679 156C679 176.987 661.987 194 641 194C620.013 194 603 176.987 603 156C603 135.013 620.013 118 641 118C661.987 118 679 135.013 679 156ZM59 291C79.9868 291 97 273.987 97 253C97 232.013 79.9868 215 59 215C38.0132 215 21 232.013 21 253C21 273.987 38.0132 291 59 291ZM194 253C194 273.987 176.987 291 156 291C135.013 291 118 273.987 118 253C118 232.013 135.013 215 156 215C176.987 215 194 232.013 194 253ZM253 291C273.987 291 291 273.987 291 253C291 232.013 273.987 215 253 215C232.013 215 215 232.013 215 253C215 273.987 232.013 291 253 291ZM388 253C388 273.987 370.987 291 350 291C329.013 291 312 273.987 312 253C312 232.013 329.013 215 350 215C370.987 215 388 232.013 388 253ZM447 291C467.987 291 485 273.987 485 253C485 232.013 467.987 215 447 215C426.013 215 409 232.013 409 253C409 273.987 426.013 291 447 291ZM582 253C582 273.987 564.987 291 544 291C523.013 291 506 273.987 506 253C506 232.013 523.013 215 544 215C564.987 215 582 232.013 582 253ZM641 291C661.987 291 679 273.987 679 253C679 232.013 661.987 215 641 215C620.013 215 603 232.013 603 253C603 273.987 620.013 291 641 291ZM97 350C97 370.987 79.9868 388 59 388C38.0132 388 21 370.987 21 350C21 329.013 38.0132 312 59 312C79.9868 312 97 329.013 97 350ZM156 388C176.987 388 194 370.987 194 350C194 329.013 176.987 312 156 312C135.013 312 118 329.013 118 350C118 370.987 135.013 388 156 388ZM291 350C291 370.987 273.987 388 253 388C232.013 388 215 370.987 215 350C215 329.013 232.013 312 253 312C273.987 312 291 329.013 291 350ZM350 388C370.987 388 388 370.987 388 350C388 329.013 370.987 312 350 312C329.013 312 312 329.013 312 350C312 370.987 329.013 388 350 388ZM485 350C485 370.987 467.987 388 447 388C426.013 388 409 370.987 409 350C409 329.013 426.013 312 447 312C467.987 312 485 329.013 485 350ZM544 388C564.987 388 582 370.987 582 350C582 329.013 564.987 312 544 312C523.013 312 506 329.013 506 350C506 370.987 523.013 388 544 388ZM679 350C679 370.987 661.987 388 641 388C620.013 388 603 370.987 603 350C603 329.013 620.013 312 641 312C661.987 312 679 329.013 679 350ZM59 485C79.9868 485 97 467.987 97 447C97 426.013 79.9868 409 59 409C38.0132 409 21 426.013 21 447C21 467.987 38.0132 485 59 485ZM194 447C194 467.987 176.987 485 156 485C135.013 485 118 467.987 118 447C118 426.013 135.013 409 156 409C176.987 409 194 426.013 194 447ZM253 485C273.987 485 291 467.987 291 447C291 426.013 273.987 409 253 409C232.013 409 215 426.013 215 447C215 467.987 232.013 485 253 485ZM388 447C388 467.987 370.987 485 350 485C329.013 485 312 467.987 312 447C312 426.013 329.013 409 350 409C370.987 409 388 426.013 388 447ZM447 485C467.987 485 485 467.987 485 447C485 426.013 467.987 409 447 409C426.013 409 409 426.013 409 447C409 467.987 426.013 485 447 485ZM582 447C582 467.987 564.987 485 544 485C523.013 485 506 467.987 506 447C506 426.013 523.013 409 544 409C564.987 409 582 426.013 582 447ZM641 485C661.987 485 679 467.987 679 447C679 426.013 661.987 409 641 409C620.013 409 603 426.013 603 447C603 467.987 620.013 485 641 485ZM97 544C97 564.987 79.9868 582 59 582C38.0132 582 21 564.987 21 544C21 523.013 38.0132 506 59 506C79.9868 506 97 523.013 97 544ZM156 582C176.987 582 194 564.987 194 544C194 523.013 176.987 506 156 506C135.013 506 118 523.013 118 544C118 564.987 135.013 582 156 582ZM291 544C291 564.987 273.987 582 253 582C232.013 582 215 564.987 215 544C215 523.013 232.013 506 253 506C273.987 506 291 523.013 291 544ZM350 582C370.987 582 388 564.987 388 544C388 523.013 370.987 506 350 506C329.013 506 312 523.013 312 544C312 564.987 329.013 582 350 582ZM485 544C485 564.987 467.987 582 447 582C426.013 582 409 564.987 409 544C409 523.013 426.013 506 447 506C467.987 506 485 523.013 485 544ZM544 582C564.987 582 582 564.987 582 544C582 523.013 564.987 506 544 506C523.013 506 506 523.013 506 544C506 564.987 523.013 582 544 582ZM679 544C679 564.987 661.987 582 641 582C620.013 582 603 564.987 603 544C603 523.013 620.013 506 641 506C661.987 506 679 523.013 679 544ZM59 679C79.9868 679 97 661.987 97 641C97 620.013 79.9868 603 59 603C38.0132 603 21 620.013 21 641C21 661.987 38.0132 679 59 679ZM194 641C194 661.987 176.987 679 156 679C135.013 679 118 661.987 118 641C118 620.013 135.013 603 156 603C176.987 603 194 620.013 194 641ZM253 679C273.987 679 291 661.987 291 641C291 620.013 273.987 603 253 603C232.013 603 215 620.013 215 641C215 661.987 232.013 679 253 679ZM388 641C388 661.987 370.987 679 350 679C329.013 679 312 661.987 312 641C312 620.013 329.013 603 350 603C370.987 603 388 620.013 388 641ZM447 679C467.987 679 485 661.987 485 641C485 620.013 467.987 603 447 603C426.013 603 409 620.013 409 641C409 661.987 426.013 679 447 679ZM582 641C582 661.987 564.987 679 544 679C523.013 679 506 661.987 506 641C506 620.013 523.013 603 544 603C564.987 603 582 620.013 582 641ZM641 679C661.987 679 679 661.987 679 641C679 620.013 661.987 603 641 603C620.013 603 603 620.013 603 641C603 661.987 620.013 679 641 679Z" fill="#0078CE"/>
</svg>
